<svg xmlns="http://www.w3.org/2000/svg" xmlns:xlink="http://www.w3.org/1999/xlink" width="800px" height="800px" viewBox="-3 -3 30 30" transform="matrix(1, 0, 0, -1, 0, 0)"><g id="deeditor_bgCarrier" stroke-width="0">
  <rect id="dee_c_e" x="-3" y="-3" width="30" height="30" rx="38.4" fill="#aadff7" strokewidth="0"/>
</g>

<defs fill="#000000">

<style>.cls-1{filter:url(#luminosity-noclip);}.cls-2{fill:#e6e875;}.cls-3{mask:url(#mask);}.cls-4{fill:#f2e407;}.cls-5{fill:#eaeb99;}</style>

<filter id="luminosity-noclip" x="4.64" y="4.19" width="14.73" height="12.76" filterUnits="userSpaceOnUse" color-interpolation-filters="sRGB" fill="#000000">

<feFlood flood-color="#ffffff" result="bg" fill="#000000"/>

<feBlend in="SourceGraphic" in2="bg" fill="#000000"/>

</filter>

<mask id="mask" x="4.64" y="4.19" width="14.73" height="12.76" maskUnits="userSpaceOnUse" fill="#000000">

<circle class="cls-1" cx="12" cy="12.23" r="3.58" fill="#000000"/>

</mask>

</defs>

<title>Icon_24px_Pub-Sub_Color</title>

<g data-name="Product Icons">

<circle class="cls-2" cx="18.97" cy="8.21" r="1.72" fill="#000000"/>

<circle class="cls-2" cx="5.03" cy="8.21" r="1.72" fill="#000000"/>

<circle class="cls-2" cx="12" cy="20.28" r="1.72" fill="#000000"/>

<g class="cls-3">

<rect class="cls-4" x="14.69" y="10.22" width="1.59" height="8.04" transform="matrix(0.5, -0.87, 0.87, 0.5, -4.59, 20.53)" fill="#000000"/>

<rect class="cls-4" x="4.49" y="13.45" width="8.04" height="1.59" transform="translate(-5.98 6.17) rotate(-30)" fill="#000000"/>

<rect class="cls-4" x="11.2" y="4.19" width="1.59" height="8.04" fill="#000000"/>

</g>

<circle class="cls-5" cx="12" cy="12.23" r="2.78" fill="#000000"/>

<circle class="cls-5" cx="5.03" cy="16.25" r="2.19" fill="#000000"/>

<circle class="cls-5" cx="18.97" cy="16.25" r="2.19" fill="#000000"/>

<circle class="cls-5" cx="12" cy="4.19" r="2.19" fill="#000000"/>

</g>

</svg>